<svg xmlns="http://www.w3.org/2000/svg" width="27.929" height="27.929" viewBox="0 0 27.929 27.929">
  <defs>
    <style>
      .cls-1 {
        fill: none;
        stroke: #000;
        stroke-linejoin: round;
        stroke-width: 1.5px;
      }
    </style>
  </defs>
  <path class="cls-1" d="M25.3,13.652a10.5,10.5,0,0,1-1.128,4.762,10.652,10.652,0,0,1-9.524,5.89A10.5,10.5,0,0,1,9.89,23.176H5.128V18.414A10.5,10.5,0,0,1,4,13.652,10.652,10.652,0,0,1,9.89,4.128,10.5,10.5,0,0,1,14.652,3h.627A10.627,10.627,0,0,1,25.3,13.025Z" transform="matrix(-0.259, -0.966, 0.966, -0.259, 4.57, 31.65)"/>
</svg>
