<svg xmlns="http://www.w3.org/2000/svg" viewBox="0 0 34 34.004">
  <g fill="#292929">
    <path d="M17.001 25.057a8.053 8.053 0 1 1 8.053-8.053 8.062 8.062 0 0 1-8.053 8.053zm0-14.626a6.573 6.573 0 1 0 6.572 6.573 6.58 6.58 0 0 0-6.572-6.573z"/>
    <path d="M17.001 34.004a16.847 16.847 0 0 1-2.252-.166l-.473-.061-1.395-4.581a12.749 12.749 0 0 1-1.581-.654l-4.225 2.252-.378-.289a17.05 17.05 0 0 1-3.192-3.19l-.289-.379 2.251-4.222a13.063 13.063 0 0 1-.656-1.582l-4.581-1.4-.063-.472A16.875 16.875 0 0 1 0 17.001a17.063 17.063 0 0 1 .166-2.253l.062-.472 4.581-1.395a12.9 12.9 0 0 1 .654-1.581L3.211 7.075l.289-.378a17.074 17.074 0 0 1 3.19-3.192l.379-.289 4.223 2.251a12.96 12.96 0 0 1 1.581-.655l1.4-4.582.473-.062a15.027 15.027 0 0 1 4.511 0l.472.061 1.395 4.582a12.833 12.833 0 0 1 1.581.655l4.225-2.253.378.289a17.086 17.086 0 0 1 3.193 3.19l.289.379-2.252 4.222a12.868 12.868 0 0 1 .655 1.582l4.583 1.4.062.473a16.67 16.67 0 0 1 .167 2.259 16.883 16.883 0 0 1-.166 2.252l-.061.472-4.582 1.395a12.812 12.812 0 0 1-.655 1.581l2.253 4.225-.289.379a17.039 17.039 0 0 1-3.19 3.191l-.379.289-4.23-2.254a12.9 12.9 0 0 1-1.583.655l-1.395 4.582-.472.062a16.717 16.717 0 0 1-2.255.168zm-1.588-1.575a13.258 13.258 0 0 0 3.182 0l1.343-4.416.378-.115a11.367 11.367 0 0 0 2.05-.85l.349-.187 4.066 2.168a15.571 15.571 0 0 0 2.25-2.251l-2.17-4.068.187-.349a11.358 11.358 0 0 0 .85-2.049l.115-.378 4.413-1.343a13.416 13.416 0 0 0 0-3.182l-4.42-1.344-.115-.378a11.356 11.356 0 0 0-.85-2.049l-.187-.348 2.168-4.067a15.613 15.613 0 0 0-2.25-2.25l-4.069 2.17-.349-.187a11.27 11.27 0 0 0-2.05-.849l-.378-.115-1.342-4.412a13.039 13.039 0 0 0-3.181 0l-1.345 4.415-.378.115a11.317 11.317 0 0 0-2.049.849l-.348.186-4.066-2.168a15.6 15.6 0 0 0-2.251 2.25l2.17 4.069-.188.349a11.476 11.476 0 0 0-.848 2.049l-.114.378-4.413 1.343a13.269 13.269 0 0 0 0 3.182l4.413 1.344.116.377a11.315 11.315 0 0 0 .85 2.05l.186.349-2.168 4.066a15.653 15.653 0 0 0 2.25 2.25l4.07-2.169.348.187a11.374 11.374 0 0 0 2.049.849l.378.115z"/>
  </g>
</svg>
