<svg xmlns="http://www.w3.org/2000/svg" width="24.116" height="26.692" viewBox="0 0 24.116 26.692">
  <defs>
    <style>
      .cls-1, .cls-2 {
        fill: none;
        stroke: #000;
        stroke-width: 1.5px;
      }

      .cls-1 {
        stroke-linejoin: round;
      }
    </style>
  </defs>
  <g id="package" transform="translate(-2.25 -1.218)">
    <line class="cls-1" x1="11.308" y1="6.521" transform="translate(8.654 4.776)"/>
    <path class="cls-2" d="M25.616,19.59V9.538a2.513,2.513,0,0,0-1.256-2.174l-8.8-5.026a2.513,2.513,0,0,0-2.513,0l-8.8,5.026A2.513,2.513,0,0,0,3,9.538V19.59a2.513,2.513,0,0,0,1.256,2.174l8.8,5.026a2.513,2.513,0,0,0,2.513,0l8.8-5.026A2.513,2.513,0,0,0,25.616,19.59Z" transform="translate(0 0)"/>
    <path class="cls-2" d="M3.27,6.96l10.969,6.345L25.207,6.96" transform="translate(0.069 1.271)"/>
    <line class="cls-1" y1="12.665" transform="translate(14.308 14.564)"/>
  </g>
</svg>
