<svg xmlns="http://www.w3.org/2000/svg" viewBox="0 0 31.843 31.846">
  <path fill="#292929" d="M15.922 31.846a15.787 15.787 0 0 1-2.109-.155l-.443-.057-1.306-4.291a11.956 11.956 0 0 1-1.481-.613l-3.957 2.107-.354-.271a15.966 15.966 0 0 1-2.989-2.987l-.271-.355L5.12 21.27a12.228 12.228 0 0 1-.615-1.482l-4.29-1.307-.059-.442A15.794 15.794 0 0 1 0 15.923a15.964 15.964 0 0 1 .155-2.11l.058-.442 4.29-1.306a12.093 12.093 0 0 1 .613-1.481l-2.11-3.955.271-.354a15.994 15.994 0 0 1 2.987-2.989l.355-.271 3.955 2.108a12.134 12.134 0 0 1 1.481-.614L13.362.217l.443-.058a14.075 14.075 0 0 1 4.225 0l.442.057 1.306 4.291a12.009 12.009 0 0 1 1.481.614l3.957-2.11.354.271a16 16 0 0 1 2.99 2.987l.271.355-2.109 3.954a12.056 12.056 0 0 1 .614 1.482l4.292 1.307.058.443a15.612 15.612 0 0 1 .156 2.116 15.8 15.8 0 0 1-.155 2.109l-.057.442-4.291 1.306a11.981 11.981 0 0 1-.614 1.481l2.11 3.957-.271.355a15.956 15.956 0 0 1-2.987 2.988l-.355.271-3.954-2.108a12.088 12.088 0 0 1-1.483.614l-1.306 4.292-.442.058a15.674 15.674 0 0 1-2.115.155zm-1.487-1.475a12.412 12.412 0 0 0 2.98 0l1.258-4.135.354-.107a10.644 10.644 0 0 0 1.92-.8l.327-.175 3.808 2.031a14.571 14.571 0 0 0 2.107-2.108l-2.033-3.81.175-.327a10.635 10.635 0 0 0 .8-1.919l.107-.354 4.133-1.258a12.553 12.553 0 0 0 0-2.98l-4.135-1.259-.107-.354a10.642 10.642 0 0 0-.8-1.919l-.175-.326 2.031-3.809a14.611 14.611 0 0 0-2.107-2.107l-3.811 2.033-.327-.175a10.561 10.561 0 0 0-1.92-.795l-.354-.108-1.257-4.132a12.212 12.212 0 0 0-2.979 0l-1.26 4.135-.354.108a10.6 10.6 0 0 0-1.919.795l-.326.175L6.763 4.66a14.611 14.611 0 0 0-2.108 2.107l2.033 3.811-.176.327a10.734 10.734 0 0 0-.794 1.919l-.107.354-4.135 1.259a12.426 12.426 0 0 0 0 2.98l4.133 1.259.109.353a10.6 10.6 0 0 0 .8 1.92l.175.327-2.031 3.808a14.654 14.654 0 0 0 2.107 2.107l3.812-2.032.326.175a10.668 10.668 0 0 0 1.919.795l.354.107z"/>
</svg>